<?xml version="1.0" encoding="utf-8"?>
<!-- Generator: Adobe Illustrator 21.0.0, SVG Export Plug-In . SVG Version: 6.00 Build 0)  -->
<svg version="1.1" id="Layer_1" xmlns="http://www.w3.org/2000/svg" xmlns:xlink="http://www.w3.org/1999/xlink" x="0px" y="0px"
	 viewBox="0 0 566.9 566.9" style="enable-background:new 0 0 566.9 566.9;" xml:space="preserve">
<style type="text/css">
	.st0{opacity:0.91;fill:#F35313;}
	.st1{fill:#FFFFFF;}
</style>
<circle class="st0" cx="279" cy="287.6" r="167.3"/>
<g>
	<path class="st1" d="M328.3,332.7c5.7-0.5,8-1.3,9.1-1.7c1.4-0.5,4.4-1.7,7.6-4.3c1.6-1.3,2.2-2,7.8-9.1c5.7-7.3,5.9-7.4,6.3-8.2
		c2.6-4.6,2.4-6.6,4.8-8.2c1.2-0.7,2.2-0.9,7.6-0.9c5.2-0.1,7.9,0,11.3,0c8.4,0,8.2-0.4,11.5,0c3.8,0.4,5.6,1.1,5.9,0.4
		c0.4-0.7-1.2-2.2-7.4-8c-6-5.6-6.4-6-7.8-6.9c-1.5-0.9-5.4-3.1-10.6-3.5c-1.7-0.1-4.8-0.1-8.2,0.2c-3.5,0.3-5.3,0.8-6.1-0.2
		c-0.7-0.8-0.3-2.1,0.4-4.6c0.8-3,1.5-6.6,1.7-8.3c0.2-2-0.2-2.3-2.2-10.7c-1.9-7.8-1.7-8.3-2.8-10.6c-2-4.3-4.5-7.1-5.4-8
		c-2.5-2.6-4.9-4-7.6-5.6c-2.9-1.7-4.4-2.5-6.5-2.8c-2.4-0.3-3.6,0.4-7.2,1.5c-8.4,2.4-11.8,1.6-12.6,3.7c-0.2,0.5-0.3,1.2,2,5.4
		c2.9,5.2,4,5.8,5.2,8.3c1,2.1,1.2,5.3,1.7,11.9c0.4,5.4,0.6,8.1,0.2,11.3c-0.3,2.9-1.1,5.4-2.6,10.6c-1.4,4.7-2.4,8.2-4.4,12.6
		c-3.1,6.9-5.2,8.4-5.9,8.9c-2.5,1.7-5.2,2.1-7,2.4c-1.4,0.2-1.8,0.1-8.5,0c-2.7-0.1-5.3-0.3-8-0.2c-3.6,0.1-4.6,0.4-6.1-0.4
		c-1.6-0.8-2.5-2.3-3.5-3.9c-0.7-1.1-1.4-2.2-1.9-3.9c-0.8-3,0.3-4.7-0.9-5.7c-0.9-0.8-1.9-0.2-2.6-0.9c-0.9-1,0.5-2.9,1.1-5.6
		s0.8-7-1.3-9.5c-1.5-1.8-3-1-7-2.6c-3.4-1.4-3.6-2.4-8-5.2c-2.3-1.5-5.3-2.9-11.1-5.6c-5.4-2.5-8.1-3.8-10-4.4
		c-6.7-2.4-12.2-2.9-16.9-3.3c-8.3-0.7-15.5-1.3-23.7,1.7c-4.4,1.6-3.5,2.2-11.7,6.5c-10.2,5.3-11.8,4.5-21.9,9.5
		c-10.4,5.1-9.2,6.3-17.8,10c-10.1,4.4-16.5,4.8-16.5,7c0,2.7,9.2,4.9,11.3,5.4c4.1,1,6.7,1,18.9,1.1c12.7,0.1,14.1,0.1,17.6,0.4
		c5.6,0.5,5.8,0.8,11.1,1.1c7,0.4,14.1,0.4,14.1,0.4c6,0,8.3-0.2,10.9,1.5c0.8,0.5,3.8,2.6,3.7,5.4c0,1.1-0.5,1.7-3.7,5.6
		c-2.7,3.3-4.1,5-4.1,5.9c0,3.1,4.3,4.6,3.7,6.1c-0.5,1.3-4.1,1.9-5.7,0.4c-1.7-1.6,0.2-4.2-1.7-6.5c-1.2-1.6-3.3-1.9-5-2.2
		c-2.2-0.4-3.6,0-5.7,0.2c-2.2,0.2-2.5,0.1-8.5,0c-8.7-0.1-6.7,0.3-17.8,0.4c-6.1,0.1-8.3-0.1-9.6,1.7c-0.4,0.6-0.5,1-0.8,6.6
		s-0.3,6.9,0.6,8c1.1,1.4,2.9,1.7,3.9,1.9c8.6,1.3,15.9,0.4,15.9,0.4c4.3-0.6,8.8-0.3,17.8-0.2c9.4,0.2,14.2,0.3,14.2,0.3
		c1.8,0.5,5,1.5,6.5,0c1.1-1.1,0.4-2.6,1.5-3.4c1.2-0.9,3,0.2,6.1,1.1c1.2,0.4,5.5,1.7,9.6,1.9c2.6,0.1,4.5-0.3,8.3-1.1
		c5-1.1,6.1-1.8,9.5-2.6c5.1-1.2,9-1.1,16.3-0.7c5.9,0.3,5.5,0.7,12.2,1.1c8.4,0.6,9.1-0.1,19.6,0.4c5.8,0.2,6.6,0.5,14.3,0.7
		C319.9,333,323.6,333.1,328.3,332.7z"/>
	<path class="st1" d="M278.8,271.7c2.1-1.5,0.9-6.8-0.3-9.8c-1-2.4-2.4-4.3-5.3-7.9c-1.7-2.1-2.5-3.2-3.2-3.7
		c-3.4-2.5-7.4-1.7-11.9-1.5c-4.8,0.3-8.6-0.3-16.3-1.5c-9.7-1.5-9.5-3-17.1-3.7c-8.3-0.8-8.2,1.1-15.2,0c-5.3-0.9-6.8-2.1-15.3-3.9
		c-8.2-1.7-9.6-1-10.3-0.5c-4.4,3.2-3.3,13.6,0.6,16.6c1.5,1.2,3.1,1.3,3.1,1.3c1.8,0.2,3.1-0.7,4.2-1.3c1.4-0.7,2.1-0.7,8.7-1.1
		c8-0.6,6.1-0.6,10.3-0.8c5.8-0.3,8.6-0.5,12.1-0.3c3.4,0.1,7.6,0.3,12.6,1.6c4.8,1.2,4.8,2,13.9,5.5c8.5,3.2,8,2.3,11,4
		c2.7,1.5,6.4,4.2,10.8,6.3c0.6,0.3,2.7,1.3,5.5,1.1C277.6,272.1,278.2,272.1,278.8,271.7z"/>
	<path class="st1" d="M331.9,227.7c-1-0.1-3.7,0.4-10.1,2.3c-0.1-0.2-0.3-0.6-0.5-1.1c-0.3-1-0.1-1.9-0.1-2.8c0.1-1.2-0.1-0.7,0-3.1
		c0-0.4,0.1-2.2,0.1-4.2c0-1,0-1.4-0.4-1.8c-0.5-0.5-1.2-0.3-2.4-0.2c-3.1,0.2-4.3-0.7-4.9,0.1c-0.4,0.5,0,0.9-0.5,1.9
		c-0.1,0.3-0.4,0.9-1.1,1.4s-1.5,0.6-2.2,0.6c-1.3,0.1-1.7-0.2-2.6-0.3c-1.4-0.1-2.4,0.3-3.6,0.8s-1.2,0.7-4.2,2.5
		c-2.3,1.4-1,0.5-3.6,2.1c-1.2,0.7-1.9,1.1-2.9,1.1c-0.2,0-1.3-0.1-1.8-0.9c-0.3-0.6-0.1-1.2-0.1-1.4c0.4-1.4,2-1.8,4.3-2.9
		c1.6-0.8,1-0.7,3.6-2.2c3.9-2.3,7.8-4,7.8-4c0.1-0.5,0.2-1.1,0.6-1.8c0.1-0.2,0.7-1.2,1.9-2.2c0.9-0.7,2.1-1.2,4.6-2.1
		c0.9-0.4,1.3-0.5,1.6-1c0.5-0.9-0.1-1.6,0.3-2.5c0.3-0.7,1-0.8,3.2-1.5c3.2-1.1,3.3-1.7,4.7-1.6c0.4,0,1.7,0.1,2.9,1
		c0.6,0.5,0.7,0.8,2.5,3.2c0.7,0.9,1,1.3,1.6,1.4c0.5,0,0.8-0.3,1.4-0.8c1.2-1.2,1.6-2.5,1.9-3.1c1.2-2.4,4.2-3.7,6-4.1
		c0,0,0.4-0.1,4.4-0.1c0.1,0.8,0.2,1.5,0.2,2c0,1.3-0.1,1.7,0,2.6c0.1,0.9,0.3,0.8,0.5,1.8c0.2,0.7,0.3,1.8,0.2,3.1
		c-0.1,1-0.3,0.9-0.7,2.8c-0.2,1.1-0.4,1.7-0.4,2.3c-0.1,1.7,0.3,2.3-0.1,2.9c-0.3,0.4-0.8,0.5-1.8,0.6c-1,0.2-1.4,0.1-2.8,0.1
		c-2.2,0-2.3,0.3-2.8,0c-0.8-0.4-0.6-1.1-1.6-2.9c-0.6-1.1-1.1-2-1.7-2c-0.2,0-0.5,0.1-1.4,2.8c-0.5,1.7-0.8,2.7-1,4.1
		c-0.2,1.9-0.3,2.8,0.1,3.9c0.6,1.6,1.7,2.5,1.4,3C332.4,227.7,332,227.7,331.9,227.7z"/>
	<path class="st1" d="M169.1,304.4c-1.4-0.3-2.4-0.4-3-0.5c-0.2,0-0.3,0-0.5,0c-1.2-0.1-2.4,0-3,0.1c-1.1,0.2-1.9,1.8-3.5,4.9
		c-0.8,1.5-1.4,2.9-1.7,3.7c-0.1,0.2-0.4,1-0.9,2.1c-0.7,1.7-1,2.7-1.3,3.7s-0.4,2-0.5,3.9c-0.2,2.1-0.3,3.7-0.3,5.7
		c0,1.4,0,3.3,0.4,5.3c0.7,4,2.6,6.7,3.9,8.8c0.8,1.2,3,4.4,7,7.5c3.2,2.5,6.1,3.8,7.6,4.4c5.5,2.2,10.2,2.3,12.7,2.3
		c2.6,0,6.1,0,10.4-1.5c4.1-1.4,7-3.5,8.3-4.5c0.1-0.1,0.3-0.3,0.6-0.5c1.7-1.4,3.9-3.2,5.6-6.1c0.5-0.9,0.8-1.7,1.5-3.3
		c0.7-1.7,0.7-2,0.6-2.2c-0.6-1.3-4.6-0.5-5.4-0.3c-1.5,2.2-2.8,4.1-3.8,5.6l0,0c-1.2,1.2-2.9,2.7-5.2,4c-3.4,2-6.6,2.8-8.8,3.2
		c-3.7,0.4-6.4-0.4-9.7-1.3c-2.3-0.7-5.4-1.7-8.8-3.9c-2.8-1.8-5.7-4.8-7.3-6.7c-0.3-0.4-0.7-0.8-1.3-1.4c-2.2-2.1-3.3-2.1-4.4-3.4
		c-0.9-1.1-1-2.6-1.2-5.5c-0.1-1.6-0.2-3.8,0.4-6.6c0.6-2.8,1.2-5.5,3.4-6.8c0.9-0.5,1.3-0.4,2.3-1.1c1.1-0.8,1.1-1.3,2.7-3.3
		c1.8-2.2,2.6-3.3,3.6-4.1c0.5-0.5,1.2-1,1.1-1.4C170.7,304.9,170.6,304.7,169.1,304.4z"/>
	<path class="st1" d="M209.1,314c2.3,0.5,5.3-2.1,5.1-3.9c0-0.2-0.2-0.5-0.5-1.2c-0.5-0.9-1-1.8-2-3s-1.5-1.8-2.3-2.1
		c-0.7-0.3-1.3-0.3-3.1-0.2c-3.2,0.2-4.7,0.4-5,0.9c-0.3,0.8,1.2,1.6,3.6,4.5C207.6,312.4,207.6,313.7,209.1,314z"/>
	<path class="st1" d="M340.8,334.2c0.4-2.4,3.4-4.5,5.2-3.9c1.1,0.4,1.2,1.6,2.3,3.8c0,0,1.6,3.4,5.1,7.7c1.1,1.4,3.3,4,6.9,6
		c1,0.5,5.5,3,11.7,2.7c4.8-0.2,8.2-1.8,10.2-2.7c3.6-1.8,6-3.9,7.3-5.1c2.1-1.9,3.7-3.3,5.1-5.9s1.7-4.8,2-6.5
		c0.5-3.6,0-6.3-0.4-9.1c-0.3-1.8-0.8-4.2-1.8-6.9c-0.6-1.3-1.5-3.1-3-5c-1.8-2.4-3.2-3.5-2.9-4.3c0.3-0.5,1.8-0.5,4.8-0.4
		c1.6,0.1,2.5,0.1,2.6,0.1c2.8,0.8,3.9,4.8,4.7,7.6c0.3,1.3,0.8,3.2,1.1,8.3c0.3,5,0.5,7.5,0.2,9.8c-0.8,6.2-3.6,10.6-4.4,11.7
		c-2.7,4.1-5.8,6.3-7.3,7.4c-4.5,3.2-8.6,4.4-11.3,5.1c-3.3,0.9-7,1.9-11.9,1.3c-2.5-0.3-6.9-1.2-11.2-4.2c-1-0.7-2.7-2.3-6.1-5.5
		c-1.4-1.3-3.6-3.5-6.1-6.7C340.8,335.8,340.7,334.8,340.8,334.2z"/>
	<path class="st1" d="M393.9,322.7c-0.1-0.8-0.5-4.2-2.4-8.3c-1.3-2.8-2.7-5.9-6.1-8.3c-1.3-0.9-3.4-2.5-6.4-2.6s-5.4,1.3-7.1,2.3
		c-2.1,1.2-2.1,1.8-5.4,4.1c-2.4,1.7-2.4,1.3-4.2,2.6c-2.8,2-4.6,4.1-7.1,7c-1.1,1.3-1.9,2.3-3.5,4.5c-2.6,3.5-3.1,4.5-3.1,5.7
		s0.5,2.1,1.4,3.9c0.3,0.6,1.2,2.2,3.1,4.4c0.9,1.1,2.7,3,5.5,5c3.4,2.3,6.4,3.2,7,3.4c1.6,0.5,4.6,1.3,8.5,0.9
		c5.1-0.5,8.5-2.9,10.5-4.3c1.5-1,3.7-2.7,5.7-5.6c0.4-0.6,2-3,2.9-6.7C393.6,330.1,394.3,326.9,393.9,322.7z M353,326
		c2.5,0,2.5,3.9,0,3.9S350.5,326,353,326z M354.9,334.9c-2.5,0-2.5-3.9,0-3.9C357.5,331,357.5,334.9,354.9,334.9z M358.5,339.7
		c-2.5,0-2.5-3.9,0-3.9C361.1,335.8,361,339.7,358.5,339.7z M362.8,342.8c-2.5,0-2.5-3.9,0-3.9C365.4,338.9,365.4,342.8,362.8,342.8
		z M389.4,324.6c-2.5,0-2.5-3.9,0-3.9C392,320.7,392,324.6,389.4,324.6z M388,314.9c2.5,0,2.5,3.9,0,3.9
		C385.5,318.9,385.5,314.9,388,314.9z M384.6,309.4c2.5,0,2.5,3.9,0,3.9S382.1,309.4,384.6,309.4z M367.9,345.2
		c-2.5,0-2.5-3.9,0-3.9C370.4,341.3,370.4,345.2,367.9,345.2z M373.1,345.9c-2.5,0-2.5-3.9,0-3.9C375.7,342,375.7,345.9,373.1,345.9
		z M378.2,344.3c-2.5,0-2.5-3.9,0-3.9C380.7,340.3,380.7,344.3,378.2,344.3z M380.3,305.6c2.5,0,2.5,3.9,0,3.9
		S377.8,305.6,380.3,305.6z M383.5,340.9c-2.5,0-2.5-3.9,0-3.9S386,340.9,383.5,340.9z M387.5,336.3c-2.5,0-2.5-3.9,0-3.9
		C390.1,332.4,390.1,336.3,387.5,336.3z M389.7,330.6c-2.5,0-2.5-3.9,0-3.9S392.2,330.6,389.7,330.6z"/>
	<path class="st1" d="M200.4,309.5c-0.1,0.9-0.7,1.7-1.9,1.7c-2,0-2.4-2.4-1.3-3.4c-0.3-0.2-0.6-0.3-0.8-0.5
		c-1.3-0.7-2.4-1.3-3.4-1.8c0.2,1.1-0.5,2.3-1.9,2.3c-2,0-2.4-2.4-1.3-3.4c-0.5-0.1-0.9-0.2-1.4-0.2c-0.8-0.1-1.9,0.1-3.7,0.4
		c0.5,1.2,0,2.9-1.7,2.9c-1.4,0-2-1.2-1.9-2.2c-1.6,0.3-2.9,0.5-3.9,0.8c0.8,1.1,0.3,3.2-1.5,3.2c-1.2,0-1.9-0.9-1.9-1.9
		c-1,0.6-1.1,1-2.3,2c1,1.1,0.5,3.4-1.4,3.4c-0.8,0-1.3-0.4-1.6-0.9c-1.8,1.4-2.7,1.9-2.5,2.3c0.2,0.6,2.4,0.3,6.3,0
		c3-0.2,6-0.3,9-0.4c2.1-0.1,6.3-0.3,10.8-0.4c8.5-0.2,11.3,0.3,11.6-0.6C203.7,311.7,202.4,310.7,200.4,309.5z"/>
	<path class="st1" d="M203.5,338.1c-0.1-0.1-0.3,0-0.4,0c-0.4,0.1-2.6,0.2-6.9,0.2c-5.3,0-6.4-0.2-11.1-0.1
		c-3.2,0.1-3.4,0.2-8.1,0.3c-3,0.1-5.4,0.1-7,0.1c-0.1,0-1-0.2-1.2,0.1c-0.2,0.3,0.2,0.7,0.4,1.1c0.3,0.4,0.6,0.8,0.9,1.1
		c0.2-0.8,0.8-1.5,1.8-1.5c2.2,0,2.5,2.9,0.9,3.7c1,0.6,1.8,1.1,2.5,1.5c0-1,0.6-1.9,1.9-1.9c1.9,0,2.4,2.3,1.3,3.4
		c1,0.4,2,0.6,2.8,0.8c-0.7-1.2-0.2-3.1,1.6-3.1c2,0,2.4,2.5,1.2,3.5c0.9,0.1,2.1,0.2,3.6,0.2c-0.8-1.1-0.3-3.2,1.5-3.2
		c1.6,0,2.2,1.6,1.7,2.8c0.2,0,0.4-0.1,0.6-0.1c0.6-0.1,1.5-0.4,2.5-0.8c-1.3-0.9-1-3.6,1.1-3.6c1.3,0,2,1.1,1.9,2.1
		c0.2-0.1,0.4-0.2,0.6-0.4c0.4-0.3,1.2-0.8,2.1-1.6c-2.1-0.4-1.9-3.9,0.4-3.9c1.1,0,1.7,0.7,1.8,1.5l0,0
		C202.5,340,203.8,338.4,203.5,338.1z"/>
	<path class="st1" d="M391.4,309.3"/>
</g>
</svg>
